<?xml version="1.0" encoding="UTF-8" standalone="no"?>
<!-- Created with Inkscape (http://www.inkscape.org/) -->

<svg
   xmlns:dc="http://purl.org/dc/elements/1.1/"
   xmlns:cc="http://creativecommons.org/ns#"
   xmlns:rdf="http://www.w3.org/1999/02/22-rdf-syntax-ns#"
   xmlns:svg="http://www.w3.org/2000/svg"
   xmlns="http://www.w3.org/2000/svg"
   xmlns:sodipodi="http://sodipodi.sourceforge.net/DTD/sodipodi-0.dtd"
   xmlns:inkscape="http://www.inkscape.org/namespaces/inkscape"
   version="1.0"
   width="865.17999"
   height="692.66663"
   id="svg1923"
   inkscape:version="0.91 r13725"
   sodipodi:docname="Elliott_wave_01.svg">
  <metadata
     id="metadata41">
    <rdf:RDF>
      <cc:Work
         rdf:about="">
        <dc:format>image/svg+xml</dc:format>
        <dc:type
           rdf:resource="http://purl.org/dc/dcmitype/StillImage" />
        <dc:title></dc:title>
      </cc:Work>
    </rdf:RDF>
  </metadata>
  <sodipodi:namedview
     pagecolor="#ffffff"
     bordercolor="#666666"
     borderopacity="1"
     objecttolerance="10"
     gridtolerance="10"
     guidetolerance="10"
     inkscape:pageopacity="0"
     inkscape:pageshadow="2"
     inkscape:window-width="1600"
     inkscape:window-height="847"
     id="namedview39"
     showgrid="false"
     inkscape:zoom="0.68142449"
     inkscape:cx="147.26689"
     inkscape:cy="365.25175"
     inkscape:window-x="-8"
     inkscape:window-y="-8"
     inkscape:window-maximized="1"
     inkscape:current-layer="svg1923" />
  <defs
     id="defs1926" />
  <g
     id="g4227"
     inkscape:export-xdpi="42"
     inkscape:export-ydpi="42">
    <path
       inkscape:connector-curvature="0"
       id="path1940"
       style="fill:none;fill-rule:evenodd;stroke:#000000;stroke-width:1px;stroke-linecap:butt;stroke-linejoin:miter;stroke-opacity:1"
       d="M 28.228191,364.4114 157.44492,228.46463 213.97724,286.34296 341.84796,145.01216 397.03428,208.27451 532.98104,65.597709 654.12173,205.5825 714.69207,147.70417 839.87078,286.34296" />
    <path
       d="m 224.63686,313.20801 0,2.36524 -13.24804,0 c -0.0182,-0.59245 0.0775,-1.16211 0.28711,-1.70899 0.33723,-0.90234 0.87727,-1.79101 1.62011,-2.66601 0.74284,-0.875 1.81608,-1.88672 3.21973,-3.03516 2.17838,-1.78645 3.65038,-3.20149 4.41602,-4.24512 0.76561,-1.0436 1.14842,-2.03026 1.14843,-2.95996 -1e-5,-0.97524 -0.34864,-1.79783 -1.0459,-2.46777 -0.69727,-0.66991 -1.60645,-1.00487 -2.72753,-1.00488 -1.18491,10e-6 -2.13282,0.35548 -2.84375,1.0664 -0.71095,0.71096 -1.07097,1.69533 -1.08008,2.95313 l -2.5293,-0.25977 c 0.17318,-1.8867 0.82487,-3.32453 1.95508,-4.31348 1.1302,-0.98891 2.64778,-1.48337 4.55273,-1.48339 1.92317,2e-5 3.4453,0.53322 4.56641,1.59961 1.12108,1.06642 1.68163,2.38803 1.68164,3.96484 -1e-5,0.8021 -0.16408,1.59051 -0.49219,2.36523 -0.32814,0.77475 -0.87273,1.59051 -1.63379,2.44727 -0.76108,0.85678 -2.02572,2.03256 -3.79394,3.52734 -1.47657,1.23959 -2.42449,2.08041 -2.84375,2.52246 -0.41928,0.44206 -0.76563,0.8864 -1.03906,1.33301 l 9.83007,0 z"
       style="font-style:normal;font-variant:normal;font-weight:normal;font-stretch:normal;font-size:28px;line-height:100%;font-family:Arial;text-align:start;writing-mode:lr-tb;text-anchor:start"
       id="flowRoot2176"
       inkscape:connector-curvature="0" />
    <path
       d="m 336.81823,131.18972 2.46094,-0.32812 c 0.28255,1.39453 0.76334,2.39941 1.44238,3.01464 0.67903,0.61524 1.50618,0.92286 2.48145,0.92286 1.15754,0 2.13508,-0.40104 2.93261,-1.20313 0.79752,-0.80208 1.19628,-1.79557 1.19629,-2.98047 -1e-5,-1.1302 -0.36915,-2.06217 -1.10742,-2.7959 -0.73829,-0.73371 -1.67709,-1.10057 -2.8164,-1.10058 -0.46486,1e-5 -1.04363,0.0911 -1.73633,0.27343 l 0.27343,-2.16015 c 0.16406,0.0182 0.29622,0.0274 0.39649,0.0273 1.04817,1e-5 1.99153,-0.27342 2.83008,-0.82031 0.83853,-0.54686 1.2578,-1.38996 1.25781,-2.5293 -10e-6,-0.90233 -0.30535,-1.64972 -0.91602,-2.24218 -0.61068,-0.59243 -1.39909,-0.88866 -2.36523,-0.88868 -0.95704,2e-5 -1.75456,0.3008 -2.39258,0.90235 -0.63802,0.60158 -1.04818,1.50392 -1.23047,2.70703 l -2.46093,-0.4375 c 0.30077,-1.64972 0.98437,-2.92804 2.05078,-3.83496 1.0664,-0.90688 2.39257,-1.36033 3.97851,-1.36035 1.09374,2e-5 2.1009,0.23472 3.02149,0.7041 0.92056,0.46942 1.62466,1.10972 2.1123,1.9209 0.48762,0.81121 0.73143,1.67254 0.73145,2.58398 -2e-5,0.8659 -0.23244,1.65431 -0.69727,2.36523 -0.46486,0.71095 -1.15301,1.27606 -2.06445,1.69532 1.18488,0.27345 2.10545,0.84083 2.76172,1.70215 0.65623,0.86133 0.98436,1.93913 0.98437,3.23339 -1e-5,1.75001 -0.63803,3.23341 -1.91406,4.4502 -1.27605,1.2168 -2.88933,1.82519 -4.83984,1.82519 -1.75913,0 -3.21974,-0.52408 -4.38184,-1.57226 -1.16211,-1.04818 -1.8252,-2.40625 -1.98926,-4.07422 l 0,0 z"
       style="font-style:normal;font-variant:normal;font-weight:normal;font-stretch:normal;font-size:28px;line-height:100%;font-family:Arial;text-align:start;writing-mode:lr-tb;text-anchor:start"
       id="flowRoot2184"
       inkscape:connector-curvature="0" />
    <path
       d="m 401.31813,236.56185 0,-4.79883 -8.69531,0 0,-2.25586 9.14648,-12.98828 2.00977,0 0,12.98828 2.70703,0 0,2.25586 -2.70703,0 0,4.79883 -2.46094,0 z m 0,-7.05469 0,-9.03711 -6.27539,9.03711 6.27539,0 z"
       style="font-style:normal;font-variant:normal;font-weight:normal;font-stretch:normal;font-size:28px;line-height:100%;font-family:Arial;text-align:start;writing-mode:lr-tb;text-anchor:start"
       id="flowRoot2192"
       inkscape:connector-curvature="0" />
    <path
       d="m 529.06576,50.90245 2.58398,-0.21875 c 0.19141,1.25781 0.63574,2.20345 1.33301,2.83691 0.69726,0.63347 1.53808,0.9502 2.52246,0.9502 1.18489,0 2.18749,-0.44662 3.00782,-1.33985 0.8203,-0.89322 1.23045,-2.07812 1.23046,-3.55469 -10e-6,-1.40363 -0.39421,-2.51105 -1.18261,-3.32226 -0.78842,-0.81119 -1.82065,-1.21679 -3.09668,-1.2168 -0.79298,10e-6 -1.50847,0.18003 -2.14649,0.54004 -0.63802,0.36004 -1.13932,0.82716 -1.5039,1.40137 l -2.31055,-0.30078 1.94141,-10.29493 9.96679,0 0,2.35157 -7.99804,0 -1.08008,5.38672 c 1.20312,-0.83853 2.46549,-1.2578 3.78711,-1.25782 1.74999,2e-5 3.22655,0.60614 4.42968,1.81836 1.20312,1.21225 1.80468,2.77084 1.80469,4.67578 -10e-6,1.81381 -0.52866,3.38152 -1.58594,4.70313 -1.28516,1.6224 -3.03972,2.43359 -5.26367,2.43359 -1.82292,0 -3.31087,-0.51041 -4.46386,-1.53125 -1.153,-1.02083 -1.81153,-2.37434 -1.97559,-4.06054 l 0,0 z"
       style="font-style:normal;font-variant:normal;font-weight:normal;font-stretch:normal;font-size:28px;line-height:100%;font-family:Arial;text-align:start;writing-mode:lr-tb;text-anchor:start"
       id="flowRoot2200"
       inkscape:connector-curvature="0" />
    <path
       d="m 650.33023,232.61128 7.69727,-20.04297 2.85742,0 8.20313,20.04297 -3.02149,0 -2.33789,-6.07032 -8.38086,0 -2.20117,6.07032 -2.81641,0 z m 5.78321,-8.23047 6.79492,0 -2.0918,-5.55078 c -0.63803,-1.68619 -1.11199,-3.0716 -1.42187,-4.15625 -0.25522,1.28517 -0.61525,2.56121 -1.08008,3.82812 l -2.20117,5.87891 z"
       style="font-style:normal;font-variant:normal;font-weight:normal;font-stretch:normal;font-size:28px;line-height:100%;font-family:Arial;text-align:start;writing-mode:lr-tb;text-anchor:start"
       id="flowRoot2208"
       inkscape:connector-curvature="0" />
    <path
       d="m 710.36373,141.74817 0,-20.04297 7.51953,0 c 1.53124,2e-5 2.75943,0.20282 3.68457,0.6084 0.92512,0.40561 1.64973,1.02996 2.17383,1.87304 0.52407,0.84312 0.78612,1.72495 0.78613,2.64551 -10e-6,0.85679 -0.23243,1.66342 -0.69726,2.41992 -0.46486,0.75652 -1.16668,1.3672 -2.10547,1.83203 1.21222,0.35548 2.14419,0.9616 2.7959,1.81836 0.65167,0.85678 0.97752,1.8685 0.97754,3.03516 -2e-5,0.93881 -0.19826,1.81153 -0.59473,2.61816 -0.3965,0.80665 -0.88641,1.42872 -1.46973,1.86621 -0.58334,0.4375 -1.31479,0.76791 -2.19433,0.99121 -0.87957,0.22331 -1.95737,0.33497 -3.2334,0.33497 l -7.64258,0 z m 2.65235,-11.6211 4.33398,0 c 1.17577,1e-5 2.01887,-0.0775 2.5293,-0.23242 0.67446,-0.20051 1.1826,-0.53319 1.52441,-0.99805 0.34178,-0.46483 0.51268,-1.04816 0.5127,-1.75 -2e-5,-0.66535 -0.15952,-1.25096 -0.47852,-1.75683 -0.31902,-0.50585 -0.77475,-0.8522 -1.36719,-1.03907 -0.59246,-0.18683 -1.60873,-0.28025 -3.04883,-0.28027 l -4.00585,0 0,6.05664 z m 0,9.25586 4.99023,0 c 0.85676,0 1.45832,-0.0319 1.80469,-0.0957 0.61066,-0.10937 1.12108,-0.29167 1.53125,-0.54688 0.41014,-0.2552 0.74738,-0.62662 1.01172,-1.11425 0.2643,-0.48763 0.39647,-1.05045 0.39648,-1.68848 -10e-6,-0.74739 -0.19142,-1.3968 -0.57422,-1.94824 -0.38282,-0.55143 -0.91375,-0.9388 -1.59277,-1.16211 -0.67905,-0.2233 -1.65659,-0.33495 -2.93262,-0.33496 l -4.63476,0 0,6.89062 z"
       style="font-style:normal;font-variant:normal;font-weight:normal;font-stretch:normal;font-size:28px;line-height:100%;font-family:Arial;text-align:start;writing-mode:lr-tb;text-anchor:start"
       id="flowRoot2216"
       inkscape:connector-curvature="0" />
    <path
       d="m 849.87529,304.5954 2.65234,0.66992 c -0.55601,2.17839 -1.55633,3.83952 -3.00098,4.9834 -1.44467,1.14388 -3.21062,1.71582 -5.29785,1.71582 -2.16016,0 -3.917,-0.43978 -5.2705,-1.31933 -1.35352,-0.87956 -2.38347,-2.15332 -3.08985,-3.82129 -0.70638,-1.66796 -1.05957,-3.45898 -1.05957,-5.37305 0,-2.08723 0.39876,-3.90786 1.19629,-5.46191 0.79752,-1.55402 1.93229,-2.73436 3.4043,-3.54102 1.47199,-0.80662 3.09211,-1.20994 4.86035,-1.20996 2.00519,2e-5 3.69139,0.51044 5.05859,1.53125 1.36717,1.02085 2.31965,2.4564 2.85742,4.30664 l -2.61132,0.61524 c -0.46486,-1.45832 -1.13934,-2.52017 -2.02344,-3.18555 -0.88413,-0.66535 -1.99611,-0.99803 -3.33594,-0.99805 -1.54037,2e-5 -2.82781,0.36916 -3.8623,1.10742 -1.03451,0.7383 -1.7614,1.72951 -2.18067,2.97364 -0.41927,1.24415 -0.62891,2.52703 -0.6289,3.84863 -1e-5,1.70443 0.24836,3.19239 0.74511,4.46387 0.49674,1.27149 1.2692,2.22168 2.31739,2.85058 1.04817,0.62891 2.18293,0.94336 3.40429,0.94336 1.48567,0 2.74348,-0.42838 3.77344,-1.28515 1.02993,-0.85677 1.7272,-2.12825 2.0918,-3.81446 l 0,0 z"
       style="font-style:normal;font-variant:normal;font-weight:normal;font-stretch:normal;font-size:28px;line-height:100%;font-family:Arial;text-align:start;writing-mode:lr-tb;text-anchor:start"
       id="flowRoot2224"
       inkscape:connector-curvature="0" />
    <path
       id="flowRoot1984"
       style="font-size:28px;font-style:normal;font-variant:normal;font-weight:normal;font-stretch:normal;text-align:start;line-height:125%;writing-mode:lr-tb;text-anchor:start;font-family:Arial"
       transform="translate(9.217997,6.584284)"
       d="M 147.36914,210.39606 L 144.9082,210.39606 L 144.9082,194.71442 C 144.31575,195.27954 143.53873,195.84464 142.57715,196.40973 C 141.61556,196.97485 140.75195,197.39867 139.98633,197.68121 L 139.98633,195.30231 C 141.36263,194.65519 142.56575,193.87133 143.5957,192.95074 C 144.62564,192.03019 145.35481,191.13696 145.7832,190.27106 L 147.36914,190.27106 L 147.36914,210.39606 z " />
  </g>
</svg>
